<svg id="Camada_1" data-name="Camada 1" xmlns="http://www.w3.org/2000/svg" xmlns:xlink="http://www.w3.org/1999/xlink" viewBox="0 0 730.81 568.8"><defs><style>.cls-1{fill:none;}.cls-2{fill:url(#linear-gradient);}.cls-3,.cls-5{fill:#1e2e9e;}.cls-4{fill:url(#Gradiente_sem_nome_99);}.cls-5{opacity:0.39;}.cls-6{fill:#ffad05;}.cls-7{clip-path:url(#clip-path);}.cls-10,.cls-12,.cls-8{fill:#fff;}.cls-9{clip-path:url(#clip-path-2);}.cls-10{opacity:0.41;}.cls-11{clip-path:url(#clip-path-3);}.cls-12{opacity:0.48;}</style><linearGradient id="linear-gradient" x1="-108.58" y1="185.11" x2="-463.09" y2="350.28" gradientTransform="translate(194.55 92.76) rotate(44.99)" gradientUnits="userSpaceOnUse"><stop offset="0" stop-color="#271a6b"/><stop offset="0.21" stop-color="#2e1b71"/><stop offset="0.53" stop-color="#431e81"/><stop offset="0.91" stop-color="#64249b"/><stop offset="1" stop-color="#6d25a2"/></linearGradient><linearGradient id="Gradiente_sem_nome_99" x1="13.01" y1="-57.7" x2="308.49" y2="298.08" gradientTransform="translate(194.55 92.76) rotate(44.99)" gradientUnits="userSpaceOnUse"><stop offset="0" stop-color="#fff"/><stop offset="0.13" stop-color="#fafcfd"/><stop offset="0.28" stop-color="#edf3f7"/><stop offset="0.44" stop-color="#d6e4ed"/><stop offset="0.6" stop-color="#b6d0df"/><stop offset="0.74" stop-color="#95bad1"/><stop offset="0.99" stop-color="#1e2e9e"/></linearGradient><clipPath id="clip-path"><path class="cls-1" d="M-274,186.89c43.62-17.66,289.45-88.26,475-88.29,216,0,529.77,146.1,529.77,185.61S417.14,470,201.11,470c-185.58,0-431.44-70.48-475.06-88.12Z"/></clipPath><clipPath id="clip-path-2"><path class="cls-1" d="M531,170.42l0,227.65c113.37-43,199.82-93.12,199.81-113.86S644.34,213.35,531,170.42Z"/></clipPath><clipPath id="clip-path-3"><path class="cls-1" d="M14.69,130.17S-101.26,20.44-106.85,17.65-243.72-11.51-393.16,5.9l196.78,169.44Z"/></clipPath></defs><path class="cls-2" d="M14.69,130.17S-101.26,20.44-106.85,17.65-243.72-11.51-393.16,5.9l196.78,169.44Z"/><path class="cls-3" d="M14.69,130.17S-101.26,20.44-106.85,17.65-243.72-11.51-393.16,5.9l196.78,169.44Z"/><path class="cls-3" d="M14.74,438.52s-115.9,109.77-121.49,112.56-136.86,29.21-286.31,11.85l196.73-169.51Z"/><path class="cls-4" d="M-274,186.89c43.62-17.66,289.45-88.26,475-88.29,216,0,529.77,146.1,529.77,185.61S417.14,470,201.11,470c-185.58,0-431.44-70.48-475.06-88.12Z"/><path class="cls-5" d="M367,285.44a2.51,2.51,0,1,1,2.5-2.51A2.5,2.5,0,0,1,367,285.44Zm16.27,0a2.5,2.5,0,1,1,2.5-2.5A2.49,2.49,0,0,1,383.31,285.43Zm16.27,0a2.5,2.5,0,1,1,2.5-2.5A2.5,2.5,0,0,1,399.58,285.43Zm16.26,0a2.51,2.51,0,1,1,2.51-2.5A2.5,2.5,0,0,1,415.84,285.43Zm16.27,0a2.51,2.51,0,1,1,2.5-2.51A2.5,2.5,0,0,1,432.11,285.43Zm16.27,0a2.5,2.5,0,1,1,2.5-2.5A2.5,2.5,0,0,1,448.38,285.42Zm16.27,0a2.51,2.51,0,1,1,2.5-2.5A2.5,2.5,0,0,1,464.65,285.42Zm16.26,0a2.51,2.51,0,1,1,2.51-2.51A2.5,2.5,0,0,1,480.91,285.42Zm16.27,0a2.5,2.5,0,1,1,2.5-2.5A2.5,2.5,0,0,1,497.18,285.41Zm-143.9-2.47a2.51,2.51,0,1,0-2.51,2.5A2.5,2.5,0,0,0,353.28,282.94Zm-16.27,0a2.51,2.51,0,1,0-2.5,2.5A2.5,2.5,0,0,0,337,282.94Zm-16.27,0a2.5,2.5,0,1,0-2.5,2.51A2.5,2.5,0,0,0,320.74,282.94Zm-296,2.56a2.5,2.5,0,1,1,2.5-2.5A2.5,2.5,0,0,1,24.69,285.5Zm16.27,0a2.51,2.51,0,1,1,2.5-2.5A2.5,2.5,0,0,1,41,285.5Zm16.27,0a2.51,2.51,0,1,1,2.5-2.51A2.51,2.51,0,0,1,57.23,285.5Zm16.26,0A2.5,2.5,0,1,1,76,283,2.5,2.5,0,0,1,73.49,285.49ZM-44.25,350.05a2.5,2.5,0,0,1-2.5-2.5,2.5,2.5,0,0,1,2.5-2.5,2.5,2.5,0,0,1,2.5,2.5A2.5,2.5,0,0,1-44.25,350.05Zm16.27,0a2.51,2.51,0,0,1-2.51-2.5A2.52,2.52,0,0,1-28,345a2.5,2.5,0,0,1,2.5,2.51A2.5,2.5,0,0,1-28,350.05Zm16.27,0a2.51,2.51,0,0,1-2.51-2.51,2.5,2.5,0,0,1,2.5-2.5,2.5,2.5,0,0,1,2.51,2.5A2.5,2.5,0,0,1-11.71,350.05Zm16.26,0a2.5,2.5,0,1,1,2.51-2.5A2.5,2.5,0,0,1,4.55,350ZM-245.83,197.38a1.3,1.3,0,0,1,.93-1.58C-242,195.05,45.62,121,177.82,121c73,0,136,6.21,200.8,21v-19l2.6.64v18.92c28,6.47,56.37,14.6,86,24.46V148.06l2.59.84v18.89c23.84,8,48.51,17.14,74.53,27.56a1.3,1.3,0,1,1-1,2.41c-135.14-54.11-234.22-74.23-365.56-74.2-131.87,0-419.18,74-422.07,74.76a1.32,1.32,0,0,1-1.24-.34A1.28,1.28,0,0,1-245.83,197.38ZM377.66,419.07a1.26,1.26,0,0,0-.38-.92,1.3,1.3,0,0,0-.91-.38l-139.81,0a1.31,1.31,0,0,0-1.3,1.3v49.77l2.6-.18V420.39l137.21,0v26.14l2.6-.64ZM-54.5,440l-2.6-.53V312.6l-192,0a1.28,1.28,0,0,1-.91-.38,1.29,1.29,0,0,1-.39-.92,1.31,1.31,0,0,1,1.3-1.3L100.4,310a1.3,1.3,0,0,1,0,2.6H33.78v12.95a1.25,1.25,0,0,1-.38.91L22.33,337.53a1.34,1.34,0,0,1-.92.38H-54.52Zm0-104.68,75.39,0L31.19,325V312.58l-85.71,0ZM384.82,131.26a2.5,2.5,0,1,1,2.5,2.5A2.5,2.5,0,0,1,384.82,131.26Zm0,7.28a2.51,2.51,0,1,1,2.5,2.5A2.5,2.5,0,0,1,384.82,138.54ZM474,157.08a2.51,2.51,0,1,1,2.51,2.5A2.5,2.5,0,0,1,474,157.08Zm0,7.28a2.5,2.5,0,1,1,2.5,2.5A2.5,2.5,0,0,1,474,164.36Z"/><path class="cls-3" d="M531,170.42l0,227.65c113.37-43,199.82-93.12,199.81-113.86S644.34,213.35,531,170.42Z"/><path class="cls-6" d="M-141,298.64c-139.24,0-252.12-6.34-252.12-14.22S-280.24,270.13-141,270.11s155.7,6.35,155.7,14.23S-1.75,298.61-141,298.64Z"/><path class="cls-6" d="M540.8,199.62h0a3.06,3.06,0,0,1,3.06-3.06h8.7a3.06,3.06,0,0,1,3.06,3.06h0a3.06,3.06,0,0,1-3.06,3.07h-8.7A3.06,3.06,0,0,1,540.8,199.62Z"/><path class="cls-6" d="M540.8,220.74h0a3.07,3.07,0,0,1,3.07-3.07h8.69a3.06,3.06,0,0,1,3.07,3.07h0a3.08,3.08,0,0,1-3.07,3.07h-8.69A3.08,3.08,0,0,1,540.8,220.74Z"/><path class="cls-6" d="M540.81,241.86h0a3.06,3.06,0,0,1,3.06-3.07h8.7a3.06,3.06,0,0,1,3.06,3.06h0a3.06,3.06,0,0,1-3.06,3.07h-8.7A3.06,3.06,0,0,1,540.81,241.86Z"/><path class="cls-6" d="M540.81,263h0a3.06,3.06,0,0,1,3.07-3.06h8.69a3.07,3.07,0,0,1,3.07,3.06h0a3.08,3.08,0,0,1-3.07,3.07h-8.69A3.06,3.06,0,0,1,540.81,263Z"/><path class="cls-6" d="M540.81,284.09h0a3.08,3.08,0,0,1,3.07-3.07h8.69a3.06,3.06,0,0,1,3.07,3.07h0a3.07,3.07,0,0,1-3.06,3.07h-8.7A3.08,3.08,0,0,1,540.81,284.09Z"/><path class="cls-6" d="M540.82,305.21h0a3.06,3.06,0,0,1,3.06-3.07h8.7a3.06,3.06,0,0,1,3.06,3.06h0a3.06,3.06,0,0,1-3.06,3.07h-8.7A3.06,3.06,0,0,1,540.82,305.21Z"/><path class="cls-6" d="M540.82,326.32h0a3.06,3.06,0,0,1,3.07-3.06h8.69a3.06,3.06,0,0,1,3.07,3.06h0a3.06,3.06,0,0,1-3.07,3.07h-8.69A3.07,3.07,0,0,1,540.82,326.32Z"/><path class="cls-6" d="M540.83,347.44h0a3.07,3.07,0,0,1,3.06-3.07h8.7a3.06,3.06,0,0,1,3.06,3.07h0a3.07,3.07,0,0,1-3.06,3.07h-8.7A3.07,3.07,0,0,1,540.83,347.44Z"/><path class="cls-6" d="M540.83,368.56h0a3.06,3.06,0,0,1,3.07-3.07h8.69a3.07,3.07,0,0,1,3.07,3.06h0a3.07,3.07,0,0,1-3.07,3.07H543.9A3.06,3.06,0,0,1,540.83,368.56Z"/><g class="cls-7"><path class="cls-8" d="M119.09,284.56a149.81,149.81,0,0,1,25.62-84.39l-9.06-15.57,16.6-29,33.38-.1,1.6,2.75a150.08,150.08,0,0,1,163.28-.49l1.58-2.77,33.38-.1,16.77,28.85-9,15.63A150,150,0,0,1,393.79,368l9.06,15.58-16.6,28.95-33.38.1-1.6-2.75a150.11,150.11,0,0,1-163.27.5l-1.59,2.76-33.37.1-16.78-28.85,9-15.63A151.09,151.09,0,0,1,131.07,343,149.39,149.39,0,0,1,119.09,284.56Zm32.1-84.14-1,1.43a144.62,144.62,0,0,0,.51,165.24l1,1.42-9.12,15.9,13.6,23.38,27-.08,2.93-5.1,2.44,1.64a144.64,144.64,0,0,0,162-.49l2.44-1.66,2.95,5.08,27.05-.08,13.45-23.46-9.21-15.84,1-1.44a144.56,144.56,0,0,0-.5-165.23l-1-1.43,9.11-15.9-13.59-23.38-27.05.09-2.92,5.09L349.91,164a144.58,144.58,0,0,0-162,.5l-2.44,1.65-3-5.08-27,.08L142,184.58Zm-19.88,84.11a137.19,137.19,0,0,1,22.16-75.32l.81-1.25,28.34-.08,13.45-23.47L188.88,172l2.08-1.44a137.7,137.7,0,0,1,155.89-.47l2.09,1.43L341.82,184l13.59,23.38,28.35-.09.82,1.24A138,138,0,0,1,385.14,359l-.81,1.24-28.45.09L342.43,383.8l7.24,12.45-2.09,1.44a138.18,138.18,0,0,1-156,.48l-2.09-1.43,7.16-12.49-13.59-23.39-28.45.09-.81-1.24A137.18,137.18,0,0,1,131.31,284.53Zm26-71.1a132.46,132.46,0,0,0,.33,142l28.64-.09L203,384.23l-6.2,10.82a132.75,132.75,0,0,0,145.56-.44l-6.27-10.79,16.6-28.95,28.64-.09a132.49,132.49,0,0,0-.54-142l-28.53.09L335.49,184l6.17-10.75a132.22,132.22,0,0,0-145.49.44l6.23,10.71-16.6,29Z"/><path class="cls-8" d="M70.09,284.71h0a6,6,0,0,1,4.66-6l150-36.83,38-144.17a6.13,6.13,0,0,1,11.81-.16l42.24,144.05,146.93,35.93a6.13,6.13,0,0,1,0,11.9l-146.7,36.83L275.71,470.6h0a6.12,6.12,0,0,1-11.8-.09L225,326.57,74.79,290.66A6,6,0,0,1,70.09,284.71Zm156.07-37.5L76.06,284.06a.58.58,0,0,0-.49.64.57.57,0,0,0,.49.62L229.42,322,269.2,469.08a.58.58,0,0,0,.62.48.61.61,0,0,0,.63-.47h0l41.8-145.83,1,.29,2.25-2.61a.21.21,0,0,0,.19,0l146.74-36.83a.59.59,0,0,0,.49-.63.58.58,0,0,0-.5-.63L315.48,247a.22.22,0,0,0-.19,0L313,244.4l-1,.29L269.32,99.12a.59.59,0,0,0-.63-.47.6.6,0,0,0-.62.49L230,243.31l19.9,18.85-3.76,4ZM265,284.12l4.54-4L273.4,284a.2.2,0,0,0,0,.27l-3.86,3.87Z"/><circle class="cls-8" cx="269.25" cy="284.11" r="141.31"/><path class="cls-3" d="M165.33,388.66A147.42,147.42,0,1,1,373.18,179.55h0a147.37,147.37,0,0,1-103.48,252l0-6.11,0,6.11a146.94,146.94,0,0,1-104.37-42.86Zm199.19-200.4a134.74,134.74,0,0,0-95.68-39.35c-74.55.23-135,61.06-134.79,135.61a135.2,135.2,0,1,0,230.47-96.26Z"/><path class="cls-3" d="M273.08,469.84,314.88,324l-1.13-1a3,3,0,0,0,2.62.61l146.75-36.83a3.39,3.39,0,0,0,0-6.58l-147-35.94a2.94,2.94,0,0,0-2.64.64l1.14-1L272,98.35a3.39,3.39,0,0,0-6.53.09L227,244.19l21.08,20-21.08-20L75.41,281.4a3.39,3.39,0,0,0,0,6.59L227.2,324.28l39.35,145.51A3.39,3.39,0,0,0,273.08,469.84Zm-1.75-187.68a3,3,0,0,0,0,3.88l-2.21-1.93Z"/><polygon class="cls-3" points="429.39 283.62 304.44 250.41 269.25 284.11 304.62 312.27 429.39 283.62"/><polygon class="cls-6" points="429.39 283.62 269.25 284.11 304.64 317.61 429.39 283.62"/><polygon class="cls-3" points="304.61 317.61 269.25 284.11 239.67 317.8 269.72 436.63 304.61 317.61"/><polygon class="cls-8" points="269.72 436.63 236.86 315.14 269.25 284.11 269.72 436.63"/><polygon class="cls-3" points="109.11 284.59 236.86 315.14 269.25 284.11 233.88 255.95 109.11 284.59"/><polygon class="cls-8" points="109.11 284.59 236.68 253.27 269.25 284.11 109.11 284.59"/><polygon class="cls-3" points="236.68 253.27 269.25 284.11 298.83 250.41 268.79 131.59 236.68 253.27"/><polygon class="cls-8" points="269.25 284.11 268.79 131.59 304.44 250.39 269.25 284.11"/><polygon class="cls-3" points="399.68 383.63 384.5 357.51 354.29 357.6 339.26 383.81 354.45 409.93 384.66 409.84 399.68 383.63"/><polygon class="cls-3" points="199.85 384.24 184.66 358.12 154.45 358.21 139.43 384.42 154.61 410.54 184.82 410.44 199.85 384.24"/><polygon class="cls-3" points="199.24 184.4 184.05 158.29 153.84 158.38 138.82 184.59 154 210.7 184.21 210.61 199.24 184.4"/><polygon class="cls-3" points="399.08 183.79 383.89 157.68 353.68 157.77 338.66 183.98 353.84 210.09 384.05 210 399.08 183.79"/></g><g class="cls-9"><path class="cls-10" d="M765.37,309S276.23,97.9,554.61,163.92C598.57,174.34,778.24,271.2,765.37,309Z"/></g><g class="cls-11"><path class="cls-12" d="M14.69,130.17S-247.77,25.62-299.27.06-117.91-23.9-81.7,4.5,14.69,130.17,14.69,130.17Z"/></g></svg>