<svg id="Camada_1" data-name="Camada 1" xmlns="http://www.w3.org/2000/svg" xmlns:xlink="http://www.w3.org/1999/xlink" viewBox="0 0 766.03 568.8"><defs><style>.cls-1{fill:none;}.cls-2{fill:url(#Gradiente_sem_nome_82);}.cls-3{fill:url(#linear-gradient);}.cls-4,.cls-6{fill:#1e2e9e;}.cls-5{fill:url(#Gradiente_sem_nome_99);}.cls-6{opacity:0.39;}.cls-7{fill:#ffad05;}.cls-8{clip-path:url(#clip-path);}.cls-9{fill:#fff;opacity:0.48;}</style><linearGradient id="Gradiente_sem_nome_82" x1="340.15" y1="584.69" x2="453.79" y2="698.33" gradientTransform="translate(418.81 -448.8) rotate(44.99)" gradientUnits="userSpaceOnUse"><stop offset="0.3" stop-color="#ffad05"/><stop offset="0.5" stop-color="#ffeb00"/><stop offset="0.7" stop-color="#ffb41b"/></linearGradient><linearGradient id="linear-gradient" x1="657.45" y1="185.11" x2="302.94" y2="350.28" gradientTransform="translate(418.81 -448.8) rotate(44.99)" gradientUnits="userSpaceOnUse"><stop offset="0" stop-color="#271a6b"/><stop offset="0.21" stop-color="#2e1b71"/><stop offset="0.53" stop-color="#431e81"/><stop offset="0.91" stop-color="#64249b"/><stop offset="1" stop-color="#6d25a2"/></linearGradient><linearGradient id="Gradiente_sem_nome_99" x1="779.04" y1="-57.7" x2="1074.52" y2="298.08" gradientTransform="translate(418.81 -448.8) rotate(44.99)" gradientUnits="userSpaceOnUse"><stop offset="0" stop-color="#fff"/><stop offset="0.13" stop-color="#fafcfd"/><stop offset="0.28" stop-color="#edf3f7"/><stop offset="0.44" stop-color="#d6e4ed"/><stop offset="0.6" stop-color="#b6d0df"/><stop offset="0.74" stop-color="#95bad1"/><stop offset="0.99" stop-color="#1e2e9e"/></linearGradient><clipPath id="clip-path"><path class="cls-1" d="M780.71,130.17S664.77,20.44,659.18,17.65,522.3-11.51,372.86,5.9L569.65,175.34Z"/></clipPath></defs><path class="cls-2" d="M492,205.14S86.93,275.31,0,259.77L482.13,365.85Z"/><path class="cls-3" d="M780.71,130.17S664.77,20.44,659.18,17.65,522.3-11.51,372.86,5.9L569.65,175.34Z"/><path class="cls-4" d="M780.71,130.17S664.77,20.44,659.18,17.65,522.3-11.51,372.86,5.9L569.65,175.34Z"/><path class="cls-4" d="M780.77,438.52S664.87,548.29,659.28,551.08,522.41,580.29,373,562.93L569.69,393.42Z"/><path class="cls-5" d="M492,186.89c43.61-17.66,289.45-88.26,475-88.29,216,0,529.77,146.1,529.78,185.61S1183.16,470,967.13,470c-185.57,0-431.43-70.48-475-88.12Z"/><path class="cls-6" d="M1133.07,285.44a2.51,2.51,0,1,1,2.5-2.51A2.51,2.51,0,0,1,1133.07,285.44Zm16.27,0a2.5,2.5,0,1,1,2.5-2.5A2.5,2.5,0,0,1,1149.34,285.43Zm16.26,0a2.5,2.5,0,1,1,2.51-2.5A2.5,2.5,0,0,1,1165.6,285.43Zm16.27,0a2.51,2.51,0,1,1,2.5-2.5A2.5,2.5,0,0,1,1181.87,285.43Zm16.27,0a2.51,2.51,0,1,1,2.5-2.51A2.52,2.52,0,0,1,1198.14,285.43Zm16.27,0a2.5,2.5,0,1,1,2.5-2.5A2.5,2.5,0,0,1,1214.41,285.42Zm16.26,0a2.51,2.51,0,1,1,2.51-2.5A2.5,2.5,0,0,1,1230.67,285.42Zm16.27,0a2.51,2.51,0,1,1,2.5-2.51A2.5,2.5,0,0,1,1246.94,285.42Zm16.27,0a2.5,2.5,0,1,1,2.5-2.5A2.5,2.5,0,0,1,1263.21,285.41Zm-143.91-2.47a2.5,2.5,0,1,0-2.5,2.5A2.5,2.5,0,0,0,1119.3,282.94Zm-16.27,0a2.5,2.5,0,1,0-2.5,2.5A2.5,2.5,0,0,0,1103,282.94Zm-16.26,0a2.51,2.51,0,1,0-2.5,2.51A2.5,2.5,0,0,0,1086.77,282.94Zm-296,2.56a2.5,2.5,0,1,1,2.5-2.5A2.51,2.51,0,0,1,790.72,285.5Zm16.27,0a2.51,2.51,0,1,1,2.5-2.5A2.5,2.5,0,0,1,807,285.5Zm16.26,0a2.51,2.51,0,1,1,2.51-2.51A2.5,2.5,0,0,1,823.25,285.5Zm16.27,0A2.5,2.5,0,1,1,842,283,2.5,2.5,0,0,1,839.52,285.49ZM721.78,350.05a2.5,2.5,0,1,1,2.5-2.5A2.5,2.5,0,0,1,721.78,350.05Zm16.26,0a2.51,2.51,0,1,1,2.51-2.5A2.5,2.5,0,0,1,738,350.05Zm16.27,0a2.51,2.51,0,1,1,2.5-2.51A2.5,2.5,0,0,1,754.31,350.05Zm16.27,0a2.5,2.5,0,1,1,2.5-2.5A2.5,2.5,0,0,1,770.58,350ZM520.19,197.38a1.31,1.31,0,0,1,.94-1.58C524,195.05,811.65,121,943.84,121c73,0,136,6.21,200.8,21v-19l2.59.64v18.92c28,6.47,56.37,14.6,86,24.46V148.06l2.59.84v18.89c23.85,8,48.52,17.14,74.54,27.56a1.3,1.3,0,0,1-1,2.41c-135.14-54.11-234.22-74.23-365.57-74.2-131.86,0-419.18,74-422.06,74.76a1.32,1.32,0,0,1-1.24-.34A1.38,1.38,0,0,1,520.19,197.38Zm623.5,221.69a1.3,1.3,0,0,0-1.3-1.3l-139.8,0a1.27,1.27,0,0,0-.92.39,1.25,1.25,0,0,0-.38.91v49.77l2.59-.18V420.39l137.22,0v26.14l2.59-.64ZM711.52,440l-2.59-.53,0-102.86v-24l-192,0a1.33,1.33,0,0,1-.92-.38,1.28,1.28,0,0,1-.38-.92,1.3,1.3,0,0,1,1.3-1.3L866.43,310a1.3,1.3,0,1,1,0,2.6H799.81v12.95a1.3,1.3,0,0,1-.38.91l-11.08,11.09a1.3,1.3,0,0,1-.92.38H711.51Zm0-104.68,75.39,0L797.21,325V312.58l-85.71,0Zm439.34-204.07a2.5,2.5,0,1,1,2.5,2.5A2.5,2.5,0,0,1,1150.85,131.26Zm0,7.28a2.5,2.5,0,1,1,2.5,2.5A2.5,2.5,0,0,1,1150.85,138.54ZM1240,157.08a2.51,2.51,0,1,1,2.5,2.5A2.5,2.5,0,0,1,1240,157.08Zm0,7.28a2.51,2.51,0,1,1,2.51,2.5A2.5,2.5,0,0,1,1240,164.36Z"/><path class="cls-4" d="M503.65,196c-14.34,4.38-25,8-31,10.44l0,156c6,2.41,16.63,6.05,31,10.43Z"/><path class="cls-4" d="M530.76,173.83c-17.93,5.49-31.28,10-38.72,13.06l0,195c7.44,3,20.79,7.57,38.72,13.05Z"/><path class="cls-7" d="M625,298.64c-139.24,0-252.12-6.34-252.12-14.22S485.79,270.13,625,270.11s155.71,6.35,155.71,14.23S764.28,298.61,625,298.64Z"/><path class="cls-7" d="M557.18,164.6,528,139.51a3.24,3.24,0,0,1,2.12-5.69l27.08.07a3.24,3.24,0,0,0,2.1-5.71L471.5,53.68a3.27,3.27,0,0,0-2.07-.77l-41.12-.28a3.22,3.22,0,0,1-2.09-.78L398.53,28a3.24,3.24,0,0,1,2.2-5.69l215,6.11a3.21,3.21,0,0,1,2.2.95l94.31,94.27a3.24,3.24,0,0,1-1.53,5.44L560.05,165.3A3.25,3.25,0,0,1,557.18,164.6Z"/><path class="cls-7" d="M557.71,403.73l-29.14,25.1a3.24,3.24,0,0,0,2.12,5.69l27.08-.07a3.23,3.23,0,0,1,2.11,5.7l-87.82,74.53a3.21,3.21,0,0,1-2.07.77l-41.11.3a3.2,3.2,0,0,0-2.09.78L399.1,540.39a3.24,3.24,0,0,0,2.21,5.69l215-6.19a3.19,3.19,0,0,0,2.2-.95l94.28-94.31a3.24,3.24,0,0,0-1.54-5.44L560.58,403A3.24,3.24,0,0,0,557.71,403.73Z"/><g class="cls-8"><path class="cls-9" d="M780.71,130.17S518.26,25.62,466.75.06s181.37-24,217.57,4.44S780.71,130.17,780.71,130.17Z"/></g></svg>